<svg xmlns="http://www.w3.org/2000/svg" viewBox="0 0 24 24">
<path fill="#FFF" d="M23.8,7.1c-0.1-1.2-0.3-2.2-0.6-2.8c-0.3-0.8-0.8-1.5-1.3-2.1s-1.3-1-2.1-1.3c-0.8-0.3-1.6-0.5-2.8-0.6
	c-1.3-0.2-1.7-0.2-4.9-0.2s-3.7,0-4.9,0.1S4.9,0.5,4.3,0.8C3.4,1,2.7,1.5,2.1,2.1S1,3.4,0.8,4.2C0.5,4.9,0.2,5.8,0.2,7.1
	C0.1,8.3,0.1,8.7,0.1,12s0,3.6,0.1,4.9c0.1,1.2,0.3,2.2,0.6,2.8c0.3,0.8,0.8,1.5,1.3,2.1s1.3,1,2.1,1.3c0.8,0.4,1.6,0.6,2.9,0.6
	c1.2,0.1,1.7,0.1,4.9,0.1s3.6,0,4.9-0.1c1.2-0.1,2.2-0.3,2.8-0.6c1.6-0.7,2.8-1.9,3.5-3.5c0.3-0.8,0.5-1.6,0.6-2.8
	C24,15.7,24,15.2,24,12S23.9,8.3,23.8,7.1z M21.7,16.8c-0.1,1.1-0.3,1.8-0.4,2.2c-0.4,1-1.2,1.9-2.3,2.3c-0.4,0.2-1,0.4-2.2,0.4
	c-1.2,0.1-1.6,0.1-4.8,0.1s-3.6,0-4.8-0.1c-1.1-0.1-1.8-0.3-2.2-0.4c-0.5-0.2-0.9-0.5-1.3-0.9c-0.5-0.4-0.8-0.9-0.9-1.3
	c-0.2-0.4-0.4-1-0.4-2.2c-0.1-1.2-0.1-1.6-0.1-4.8s0-3.6,0.1-4.8C2.5,6.1,2.7,5.4,2.8,5c0.2-0.6,0.5-0.9,0.9-1.3
	C4,3.2,4.5,2.9,5,2.8c0.4-0.2,1-0.4,2.2-0.4c1.2-0.1,1.6-0.1,4.8-0.1s3.6,0,4.8,0.1c1.1,0.1,1.8,0.3,2.2,0.4
	c0.5,0.2,0.9,0.5,1.3,0.9c0.4,0.4,0.7,0.9,0.9,1.3c0.2,0.4,0.4,1,0.4,2.2c0.1,1.2,0.1,1.6,0.1,4.8S21.7,15.6,21.7,16.8z"/>
<path fill="#FFF" d="M12.1,5.9c-3.4,0-6.2,2.8-6.2,6.2s2.8,6.1,6.2,6.1s6.2-2.8,6.2-6.2S15.4,5.9,12.1,5.9z M12.1,15.9
	c-2.2,0-4-1.8-4-4s1.8-4,4-4s4,1.8,4,4S14.2,15.9,12.1,15.9z"/>
<path fill="#FFF" d="M19.8,5.7c0,0.8-0.7,1.4-1.4,1.4S17,6.5,17,5.7s0.7-1.4,1.4-1.4C19.2,4.2,19.8,4.8,19.8,5.7z"/>
</svg>
